<?xml version="1.0" encoding="UTF-8"?>
<svg width="234px" height="234px" viewBox="0 0 234 234" version="1.1" xmlns="http://www.w3.org/2000/svg">
    <title>FranceConnect</title>
    <g stroke="none" stroke-width="1" fill="none" fill-rule="evenodd">
        <g>
            <circle fill="#034EA2" cx="117" cy="117" r="117"/>
            <path d="M149.1,99.9 L145.8,99.9 L145.8,85.7 C145.8,76.1 138,68.3 128.4,68.3 L106.1,68.3 C96.5,68.3 88.7,76.1 88.7,85.7 L88.7,99.9 L85.4,99.9 C82.9,99.9 80.9,101.9 80.9,104.4 L80.9,157.6 C80.9,160.1 82.9,162.1 85.4,162.1 L149.1,162.1 C151.6,162.1 153.6,160.1 153.6,157.6 L153.6,104.4 C153.6,101.9 151.6,99.9 149.1,99.9 Z M96.2,85.7 C96.2,80.2 100.7,75.8 106.1,75.8 L128.4,75.8 C133.8,75.8 138.3,80.2 138.3,85.7 L138.3,99.9 L96.2,99.9 L96.2,85.7 Z" fill="#FFFFFF"/>
        </g>
    </g>
</svg>
